<svg width="20" height="20" viewBox="0 0 20 20" fill="none" xmlns="http://www.w3.org/2000/svg">
<path d="M13.5631 11.766L10.7746 9.67462V5.41438C10.7746 4.98602 10.4283 4.63977 9.99995 4.63977C9.57159 4.63977 9.22534 4.98602 9.22534 5.41438V10.062C9.22534 10.3059 9.33999 10.536 9.53519 10.6816L12.6335 13.0054C12.773 13.11 12.9357 13.1604 13.0975 13.1604C13.3338 13.1604 13.5662 13.0542 13.718 12.8497C13.9752 12.5081 13.9055 12.0224 13.5631 11.766Z" fill="black"/>
<path d="M10 0C4.48566 0 0 4.48566 0 10C0 15.5143 4.48566 20 10 20C15.5143 20 20 15.5143 20 10C20 4.48566 15.5143 0 10 0ZM10 18.4508C5.34082 18.4508 1.54918 14.6592 1.54918 10C1.54918 5.34082 5.34082 1.54918 10 1.54918C14.66 1.54918 18.4508 5.34082 18.4508 10C18.4508 14.6592 14.6592 18.4508 10 18.4508Z" fill="black"/>
</svg>
